<svg width="200" height="24" viewBox="0 0 200 24" fill="none" xmlns="http://www.w3.org/2000/svg">
<path d="M199.965 15.9521C199.819 14.3229 199.127 13.1193 197.906 12.369C196.893 11.7474 195.693 11.4089 194.13 11.3001C193.399 11.2506 192.657 11.2268 191.94 11.2031C191.186 11.1793 190.409 11.1536 189.648 11.0981C188.957 11.0467 188.262 10.9061 187.639 10.6864C187.102 10.4983 186.873 9.99154 187.028 9.32838C187.187 8.64542 187.63 8.23168 188.556 7.89911C189.453 7.57643 190.448 7.44776 191.783 7.48537C193.81 7.5408 195.405 8.30691 196.658 9.82328C196.727 9.90444 196.797 9.98362 196.874 10.0687L197.27 10.5082L199 8.4336L198.547 8.13666C198.491 8.09905 198.439 8.06341 198.386 8.03372C195.591 6.38472 192.477 5.79876 189.131 6.2897C187.486 6.53121 186.267 7.04392 185.294 7.90307C184.422 8.67313 183.988 9.94997 184.189 11.1555C184.378 12.2859 185.105 13.1747 186.184 13.5944C186.88 13.8656 187.446 14.0121 187.967 14.0557C188.675 14.115 189.392 14.1428 190.085 14.1705C190.725 14.1942 191.387 14.22 192.033 14.2714L192.239 14.2873C193.272 14.3684 194.342 14.4516 195.343 14.6931C196.781 15.0415 197.391 15.9976 197.257 17.706C197.143 19.1709 196.359 20.2261 194.866 20.9308C193.231 21.7028 191.425 21.9067 189.349 21.5524C187.696 21.2713 186.371 20.4755 185.41 19.1887C185.226 18.9433 185.058 18.6741 184.878 18.389C184.787 18.2465 184.694 18.098 184.594 17.9436L184.017 17.0587L183.905 18.1237C183.879 18.3771 183.856 18.6265 183.831 18.87C183.776 19.4441 183.725 19.9865 183.642 20.521C183.54 21.1584 183.869 21.4138 184.206 21.5821C186.231 22.5877 188.453 23.0767 190.993 23.0767C191.041 23.0767 191.09 23.0767 191.139 23.0767C193.605 23.0589 195.494 22.5382 197.084 21.4396C199.227 19.9588 200.171 18.1633 199.975 15.9501L199.965 15.9521Z" fill="black"/>
<path d="M163.529 19.2659C163.523 18.5058 163.523 17.7456 163.523 16.9854C163.523 16.1995 163.523 15.4136 163.515 14.6277C163.513 14.3981 163.557 14.3248 163.661 14.2417C163.866 14.0774 164.051 13.8992 164.248 13.7072C164.335 13.6221 164.426 13.535 164.522 13.4439L165.259 12.753H158.424L159.26 13.4578C159.38 13.5587 159.495 13.6518 159.603 13.7428C159.853 13.9487 160.069 14.1269 160.265 14.3189C160.313 14.3644 160.354 14.4634 160.354 14.499C160.371 16.156 160.366 17.7693 160.358 19.1293C160.358 19.2125 160.334 19.3095 160.298 19.3708C159.838 20.1706 159.196 20.7605 158.39 21.1228C157.362 21.586 156.223 21.7622 154.907 21.6652C152.647 21.4989 151.053 20.323 150.171 18.1712C149.536 16.6212 149.375 14.9306 149.677 13.0005C149.916 11.4782 150.486 10.2607 151.417 9.27687C152.395 8.2455 153.633 7.65558 155.096 7.52493C157.258 7.32895 158.872 7.79217 160.178 8.97993C160.451 9.22738 160.691 9.52432 160.947 9.83908C161.07 9.99151 161.195 10.1459 161.325 10.2964L161.604 10.6171L163.555 8.41179L163.148 8.16236C163.048 8.10099 162.951 8.03962 162.857 7.98024C162.652 7.85156 162.459 7.73081 162.255 7.61797C160.574 6.68756 158.651 6.20058 156.378 6.13129C153.637 6.04815 151.368 6.71527 149.443 8.17424C146.85 10.14 145.794 12.8936 146.384 16.1382C146.882 18.866 148.53 20.9011 151.284 22.1819C152.528 22.7599 153.877 23.039 155.475 23.039C155.791 23.039 156.118 23.0272 156.457 23.0054C159.143 22.8332 161.327 21.9126 163.135 20.1904C163.411 19.9291 163.532 19.642 163.529 19.262V19.2659Z" fill="black"/>
<path d="M144.014 19.2065C143.751 19.3867 143.489 19.5688 143.226 19.749C142.579 20.1983 141.909 20.6616 141.243 21.101C141.088 21.202 140.883 21.2693 140.718 21.2693C138.642 21.2812 136.53 21.2812 134.488 21.2792H132.691V12.9075H133.151C135.402 12.9055 137.728 12.9015 140.016 12.9114C140.047 12.9114 140.134 12.9411 140.242 13.0223C140.787 13.4301 141.336 13.8537 141.865 14.2615L142.672 14.8811L143.171 14.3684L141.184 10.4726L140.826 10.7913C140.773 10.8388 140.72 10.8823 140.671 10.9219C140.554 11.0189 140.442 11.112 140.342 11.2347C140.145 11.4723 139.914 11.5554 139.452 11.5514C137.806 11.5356 136.13 11.5376 134.512 11.5396C133.925 11.5396 133.341 11.5396 132.754 11.5396H132.691V7.87336H132.837C133.433 7.87336 134.028 7.87732 134.624 7.88127C136.057 7.89117 137.537 7.90107 138.996 7.85356C139.935 7.82387 140.656 8.04756 141.33 8.58007C141.905 9.03538 142.524 9.43922 143.12 9.83118C143.382 10.0014 143.641 10.1736 143.9 10.3479L144.141 10.5122L144.635 10.0549L142.621 6.02837L142.297 6.17684C141.521 6.53119 140.709 6.52327 139.85 6.51535C139.715 6.51535 139.581 6.51337 139.447 6.51337H127.592L128.402 7.21415C128.525 7.32105 128.639 7.41607 128.747 7.50515C128.972 7.69321 129.167 7.85752 129.334 8.03172C129.424 8.12872 129.476 8.24948 129.476 8.28709C129.489 12.3274 129.489 16.5559 129.476 20.8516C129.476 20.8872 129.432 20.9961 129.353 21.0832C129.175 21.2772 128.978 21.4554 128.751 21.6612C128.652 21.7503 128.55 21.8434 128.446 21.9404L127.942 22.4095L127.346 21.9265C127.199 21.8077 127.06 21.6969 126.926 21.592C126.618 21.3465 126.351 21.1347 126.097 20.905C125.976 20.7962 125.879 20.6576 125.851 20.5527C124.11 14.0695 122.533 8.1505 121.03 2.45916C121.024 2.42155 121.051 2.28496 121.127 2.1543C121.227 1.97812 121.359 1.81183 121.511 1.61981C121.583 1.52875 121.657 1.43571 121.732 1.33475L122.213 0.693359H116.075L117.027 1.93259L112.017 8.14456L111.534 7.4814C110.183 5.62453 108.907 3.86863 107.616 2.07314C107.616 2.05334 107.622 2.02761 107.626 2.01969C107.701 1.87716 107.807 1.73859 107.93 1.57824C107.989 1.50103 108.05 1.42185 108.112 1.33673L108.574 0.701278H101.274L102.123 1.40799C102.19 1.46342 102.248 1.51489 102.301 1.5624C102.419 1.66732 102.53 1.7663 102.665 1.84548C102.773 1.90685 102.786 1.91477 102.727 2.14836C101.917 5.39886 101.109 8.65134 100.303 11.9038C99.5891 14.7821 98.8755 17.6625 98.1582 20.5408C98.1335 20.6378 98.0503 20.7684 97.9537 20.8556C97.6793 21.105 97.3878 21.3425 97.0793 21.592C96.9506 21.6969 96.82 21.8018 96.6856 21.9127L95.8301 22.6194H101.762L100.874 21.9087C100.738 21.7998 100.607 21.6929 100.482 21.592C100.197 21.3584 99.926 21.1386 99.644 20.9328C99.4963 20.8259 99.4831 20.808 99.5323 20.6121C100.683 16.0451 101.843 11.399 102.964 6.90533L103.92 3.07679L110.654 12.0087L117.644 3.36779L118.63 7.07954C119.847 11.6643 121.064 16.2471 122.287 20.8298C122.291 20.8457 122.294 20.8595 122.296 20.8694C122.289 20.8773 122.277 20.8852 122.26 20.8971C121.963 21.1208 121.672 21.3544 121.363 21.6019C121.233 21.7068 121.098 21.8137 120.958 21.9265L120.063 22.6372H128.224L128.219 22.6332H143.586L145.25 18.9017L144.582 18.9769C144.332 19.0046 144.161 19.1016 144.014 19.2026V19.2065Z" fill="black"/>
<path d="M55.2463 17.32C55.2122 17.3913 55.18 17.4566 55.1516 17.5239C54.0803 20.0459 52.4034 21.394 50.0261 21.6474C47.6564 21.8988 45.6974 20.8991 44.6469 18.9037C43.5737 16.8647 43.3466 14.6238 43.9522 12.0523C44.3705 10.2786 45.2071 9.02946 46.5093 8.22772C48.8128 6.81231 52.1195 7.39035 53.8778 9.51644C54.175 9.87475 54.4343 10.2726 54.7087 10.6923C54.8393 10.8923 54.9718 11.0942 55.1119 11.2981L55.3258 11.6089L57.6311 10.0054L57.2583 9.66491C57.016 9.44517 56.7832 9.2195 56.5579 8.99976C56.062 8.51872 55.5945 8.06539 55.057 7.68333C51.987 5.49984 46.4923 5.25239 42.968 8.65927C41.2551 10.3162 40.3693 12.2364 40.339 14.3625C40.2973 17.1715 41.4387 19.4778 43.7327 21.2198C45.3302 22.4333 47.2551 23.049 49.4564 23.049C51.3112 23.049 52.8747 22.6709 54.2355 21.8909C55.5642 21.1307 56.6488 20.0321 57.5478 18.5355L57.7598 18.1811L55.4696 16.8528L55.2482 17.322L55.2463 17.32Z" fill="black"/>
<path d="M37.802 21.6473C37.5559 21.4454 37.342 21.2712 37.149 21.0772C37.0676 20.9961 37.0165 20.8713 37.0165 20.8318C37.0032 16.5835 37.0032 12.3749 37.0165 8.31872C37.0165 8.26527 37.0751 8.1267 37.1717 8.02178C37.3344 7.84757 37.5256 7.68723 37.7471 7.5051C37.8493 7.41998 37.9572 7.3309 38.0669 7.2339L38.877 6.53312H31.8133L32.6878 7.24182C32.8108 7.3408 32.9262 7.43384 33.0379 7.52094C33.2859 7.71692 33.4997 7.88519 33.6928 8.06929C33.7609 8.13264 33.812 8.23162 33.8158 8.26527C33.8291 12.4125 33.8291 16.6508 33.8158 20.8634C33.812 20.901 33.7628 21.002 33.6947 21.0693C33.4941 21.2673 33.2669 21.4553 33.0266 21.6533C32.9206 21.7404 32.8127 21.8314 32.6991 21.9265L32.1161 22.4214L31.4896 21.9146C31.3515 21.8037 31.219 21.6968 31.0903 21.5959C30.7969 21.3623 30.5206 21.1425 30.265 20.9129C30.142 20.8021 30.0455 20.6655 30.019 20.5605C28.2852 14.1071 26.7086 8.18608 25.1981 2.46703C25.1925 2.42744 25.2171 2.29282 25.2928 2.16217C25.3931 1.98599 25.5256 1.8197 25.6789 1.6257C25.7508 1.53464 25.8246 1.43962 25.9004 1.34064L26.383 0.699249H20.2638L21.1893 1.94442L16.1811 8.15045L15.7041 7.49323C14.3527 5.63438 13.0751 3.8765 11.7824 2.07903C11.7824 2.05923 11.7861 2.03548 11.7899 2.02558C11.8656 1.88305 11.9716 1.74448 12.0947 1.58413C12.1533 1.50692 12.2158 1.42576 12.2783 1.34064L12.7401 0.705188H5.43976L6.2896 1.4119C6.35585 1.46733 6.41452 1.5188 6.46752 1.56631C6.58487 1.67123 6.69654 1.77021 6.83093 1.84742C6.94071 1.91076 6.95396 1.91868 6.89717 2.15029C6.07761 5.43642 5.26184 8.72453 4.44606 12.0126C3.74007 14.8553 3.03597 17.7 2.32808 20.5427C2.30347 20.6417 2.22019 20.7704 2.12366 20.8575C1.84921 21.1069 1.55773 21.3445 1.24921 21.5959C1.12051 21.7008 0.989907 21.8077 0.855522 21.9185L0 22.6253H5.92241L5.04228 21.9166C4.90032 21.8018 4.76405 21.6909 4.63155 21.582C4.31925 21.3267 4.02587 21.0851 3.71925 20.8595C3.68707 20.8357 3.67193 20.8199 3.66814 20.8199C3.66814 20.806 3.67004 20.7743 3.68707 20.707C4.6713 16.7874 5.66499 12.7985 6.62462 8.94229L7.48392 5.49383C7.65806 4.79899 7.83219 4.10416 8.01579 3.37962L8.0896 3.08664L14.8202 12.0146L21.812 3.36973L22.8152 7.14878C24.0265 11.7098 25.236 16.2708 26.453 20.8278C26.4587 20.8456 26.4606 20.8595 26.4625 20.8694C26.4549 20.8753 26.4436 20.8852 26.4303 20.8951C26.1332 21.1188 25.8436 21.3504 25.5388 21.5959C25.412 21.6968 25.2833 21.8018 25.147 21.9087L24.2518 22.6193H31.8833L31.8758 22.6253H38.9679L38.1351 21.9205C38.0196 21.8235 37.908 21.7305 37.8001 21.6434L37.802 21.6473Z" fill="black"/>
<path d="M136.035 5.70567C136.118 5.6839 136.215 5.66806 136.319 5.65222C136.591 5.61065 136.898 5.56314 137.137 5.3533C138.429 4.21702 139.688 3.07281 141.019 1.85932C141.437 1.47725 141.861 1.09321 142.289 0.703232L143.053 0.00839341H142.041C141.768 0.00839341 141.505 0.00839341 141.25 0.00839341C140.61 0.00839341 140.008 0.0123526 139.41 0.000475021C139.029 -0.00942296 138.766 0.135088 138.55 0.459741C137.901 1.44162 137.233 2.43538 136.586 3.39548C136.308 3.80922 136.029 4.22295 135.751 4.63669C135.696 4.71785 135.647 4.80298 135.6 4.89008L135.418 5.20286L135.77 5.77496L136.033 5.70567H136.035Z" fill="black"/>
<path d="M76.7957 21.5841C76.4304 21.3802 76.0859 21.1862 75.7642 20.9763C75.4537 20.7744 75.2077 20.5646 75.0336 20.3508C74.2007 19.3392 73.366 18.2979 72.5597 17.2903L71.8556 16.4114C71.4203 15.869 70.985 15.3226 70.5288 14.7505L70.3944 14.5822C71.4165 14.5169 72.5881 14.4041 73.7105 13.9626C74.5509 13.632 75.7206 13.0282 76.1578 11.6108C76.6935 9.87474 75.908 8.15645 74.2045 7.3369C73.0821 6.79647 71.8253 6.5411 70.2487 6.5312C67.6556 6.51537 65.0209 6.51735 62.4714 6.51933C61.5704 6.51933 60.6695 6.51933 59.7704 6.51933C59.6796 6.51933 59.5944 6.52724 59.496 6.53714C59.4487 6.5411 59.3957 6.54704 59.3351 6.551L58.3906 6.6282L59.125 7.25376C59.2348 7.3468 59.3408 7.4339 59.443 7.51902C59.6758 7.71104 59.8764 7.87535 60.0581 8.05747C60.1282 8.12676 60.1793 8.23168 60.1831 8.26533C60.1963 12.2879 60.1963 16.5282 60.1831 20.8714C60.1831 20.907 60.1395 21.004 60.0808 21.0674C59.8935 21.2693 59.6815 21.4613 59.4581 21.6652C59.3597 21.7543 59.2594 21.8473 59.1553 21.9443L58.4171 22.6352H65.3843L64.5307 21.9285C64.4133 21.8315 64.3036 21.7385 64.1976 21.6474C63.9553 21.4415 63.7263 21.2475 63.4821 21.0713C63.395 21.008 63.3648 20.9704 63.3648 20.7883C63.3723 19.2244 63.3723 17.6348 63.3704 16.0966V14.5921H63.8323C64.7578 14.5901 65.6342 14.5882 66.5181 14.604C66.5446 14.6159 66.6014 14.6574 66.6449 14.7109C67.5629 15.8511 68.4865 17.0191 69.3799 18.1475L69.5597 18.3751C70.1635 19.1373 70.7654 19.9014 71.3711 20.6695L72.0127 21.4831L71.2159 22.6194H78.609L77.3162 21.877C77.1364 21.7741 76.9623 21.6771 76.7957 21.5841ZM72.9951 10.5339C73.0026 11.2149 72.8171 12.1255 71.8878 12.5848C71.1402 12.955 70.5193 13.145 69.9913 13.1648C68.3427 13.2262 66.6619 13.2242 65.0361 13.2222C64.7086 13.2222 64.3831 13.2222 64.0556 13.2222C63.8342 13.2222 63.6146 13.2222 63.3932 13.2222V7.88129C63.925 7.88327 64.4569 7.88525 64.9868 7.88723C66.6033 7.89317 68.2727 7.89712 69.9156 7.92286C70.5894 7.93276 71.2367 8.11488 71.8405 8.46329C72.6071 8.90474 72.9856 9.58176 72.9951 10.5339Z" fill="black"/>
<path d="M81.0143 8.26727C77.7361 11.1357 77.1247 15.6314 79.5285 19.1986C81.143 21.5959 83.5922 22.9598 86.4352 23.037C88.803 23.0351 90.6087 22.4847 92.2913 21.2534C94.2087 19.8499 95.4276 17.6842 95.632 15.3146C95.8364 12.953 95.015 10.6072 93.3796 8.87698C90.1733 5.48791 84.5121 5.20681 81.0143 8.26727ZM81.4591 13.4974C81.5765 12.0265 81.9323 10.8328 82.5493 9.84303C83.5355 8.26133 84.9228 7.48335 86.7739 7.48335C87.0295 7.48335 87.2945 7.49919 87.5689 7.52888C89.9689 7.78821 91.5929 9.50452 92.1437 12.3571C92.2478 12.8916 92.2951 13.4518 92.3311 13.8596C92.3443 14.0041 92.3557 14.1328 92.367 14.2358C92.3311 16.5578 91.9468 18.1118 91.0894 19.4243C90.1052 20.9307 88.4434 21.782 86.6452 21.6929C84.8471 21.6078 83.2667 20.6041 82.4168 19.0105C81.5897 17.4566 81.285 15.7066 81.461 13.4974H81.4591Z" fill="black"/>
<path d="M183.561 21.7958C183.472 21.7166 183.396 21.6474 183.307 21.584C182.645 21.101 182.107 20.4279 181.617 19.4658C180.425 17.124 179.185 14.7603 177.987 12.4739C177.553 11.6484 177.122 10.8229 176.69 9.99545C176.232 9.12047 175.774 8.24351 175.307 7.35467L174.351 5.52948L173.906 6.27777C173.84 6.38863 173.781 6.48562 173.724 6.58658L172.201 9.26696C170.058 13.0361 167.842 16.9339 165.654 20.7625C165.574 20.901 165.425 21.0475 165.222 21.1861C164.987 21.3465 164.738 21.487 164.448 21.6493C164.316 21.7226 164.179 21.7998 164.035 21.8849L162.758 22.6273H168.428L166.922 21.3445L167.136 20.9664C167.594 20.1528 168.027 19.3847 168.478 18.6087C168.491 18.6027 168.506 18.5968 168.512 18.5968C171.533 18.5889 174.597 18.5889 177.612 18.5968C177.622 18.5968 177.637 18.6027 177.648 18.6087C178.082 19.3827 178.513 20.1805 178.929 20.9505L179.14 21.3366L177.82 22.6253H184.519L183.709 21.9245C183.654 21.877 183.608 21.8354 183.565 21.7978L183.561 21.7958ZM173.21 10.3003L176.927 17.219H169.273L173.21 10.3003Z" fill="black"/>
</svg>
