<svg width="200" height="24" viewBox="0 0 200 24" fill="none" xmlns="http://www.w3.org/2000/svg">
<path d="M199.965 15.952C199.819 14.3228 199.127 13.1192 197.906 12.3689C196.893 11.7474 195.693 11.4088 194.13 11.3C193.399 11.2505 192.657 11.2267 191.94 11.203C191.186 11.1792 190.409 11.1535 189.648 11.098C188.957 11.0466 188.262 10.906 187.639 10.6863C187.102 10.4982 186.873 9.99145 187.028 9.32829C187.187 8.64532 187.63 8.23159 188.556 7.89902C189.453 7.57634 190.448 7.44767 191.783 7.48528C193.81 7.54071 195.405 8.30681 196.658 9.82318C196.727 9.90435 196.797 9.98353 196.874 10.0687L197.27 10.5081L199 8.43351L198.547 8.13657C198.491 8.09896 198.439 8.06332 198.386 8.03363C195.591 6.38463 192.477 5.79866 189.131 6.2896C187.486 6.53112 186.267 7.04383 185.294 7.90298C184.422 8.67304 183.988 9.94988 184.189 11.1555C184.378 12.2858 185.105 13.1746 186.184 13.5943C186.88 13.8655 187.446 14.012 187.967 14.0556C188.675 14.115 189.392 14.1427 190.085 14.1704C190.725 14.1941 191.387 14.2199 192.033 14.2713L192.239 14.2872C193.272 14.3683 194.342 14.4515 195.343 14.693C196.781 15.0414 197.391 15.9975 197.257 17.7059C197.143 19.1708 196.359 20.226 194.866 20.9307C193.231 21.7027 191.425 21.9066 189.349 21.5523C187.696 21.2712 186.371 20.4754 185.41 19.1887C185.226 18.9432 185.058 18.674 184.878 18.3889C184.787 18.2464 184.694 18.0979 184.594 17.9435L184.017 17.0586L183.905 18.1236C183.879 18.377 183.856 18.6265 183.831 18.8699C183.776 19.444 183.725 19.9864 183.642 20.5209C183.54 21.1584 183.869 21.4137 184.206 21.582C186.231 22.5876 188.453 23.0766 190.993 23.0766C191.041 23.0766 191.09 23.0766 191.139 23.0766C193.605 23.0588 195.494 22.5381 197.084 21.4395C199.227 19.9587 200.171 18.1632 199.975 15.95L199.965 15.952Z" fill="black"/>
<path d="M163.53 19.266C163.524 18.5059 163.524 17.7457 163.524 16.9855C163.524 16.1996 163.524 15.4137 163.516 14.6278C163.514 14.3982 163.558 14.325 163.662 14.2418C163.866 14.0775 164.052 13.8994 164.249 13.7073C164.336 13.6222 164.427 13.5351 164.523 13.444L165.26 12.7532H158.425L159.261 13.4579C159.381 13.5589 159.496 13.6519 159.604 13.743C159.854 13.9488 160.07 14.127 160.266 14.319C160.314 14.3646 160.355 14.4635 160.355 14.4992C160.372 16.1561 160.367 17.7695 160.359 19.1294C160.359 19.2126 160.335 19.3096 160.299 19.371C159.839 20.1707 159.197 20.7606 158.391 21.1229C157.363 21.5861 156.224 21.7623 154.908 21.6653C152.648 21.499 151.054 20.3231 150.172 18.1713C149.536 16.6213 149.376 14.9307 149.678 13.0006C149.917 11.4783 150.487 10.2609 151.418 9.27699C152.396 8.24562 153.634 7.6557 155.097 7.52505C157.259 7.32907 158.873 7.7923 160.179 8.98005C160.452 9.2275 160.692 9.52444 160.948 9.8392C161.071 9.99163 161.196 10.146 161.326 10.2965L161.605 10.6172L163.556 8.41191L163.149 8.16248C163.049 8.10111 162.952 8.03975 162.858 7.98036C162.653 7.85168 162.46 7.73093 162.256 7.61809C160.575 6.68768 158.652 6.2007 156.379 6.13141C153.638 6.04827 151.369 6.7154 149.444 8.17436C146.851 10.1401 145.795 12.8937 146.385 16.1383C146.883 18.8662 148.531 20.9012 151.285 22.182C152.529 22.76 153.878 23.0392 155.476 23.0392C155.792 23.0392 156.119 23.0273 156.458 23.0055C159.144 22.8333 161.328 21.9128 163.136 20.1905C163.412 19.9292 163.533 19.6422 163.53 19.2621V19.266Z" fill="black"/>
<path d="M144.014 19.2065C143.751 19.3867 143.489 19.5688 143.226 19.749C142.579 20.1983 141.909 20.6616 141.243 21.101C141.088 21.202 140.883 21.2693 140.718 21.2693C138.642 21.2812 136.53 21.2812 134.488 21.2792H132.691V12.9075H133.151C135.402 12.9055 137.728 12.9015 140.016 12.9114C140.047 12.9114 140.134 12.9411 140.242 13.0223C140.787 13.4301 141.336 13.8537 141.865 14.2615L142.672 14.8811L143.171 14.3684L141.184 10.4726L140.826 10.7913C140.773 10.8388 140.72 10.8823 140.671 10.9219C140.554 11.0189 140.442 11.112 140.342 11.2347C140.145 11.4723 139.914 11.5554 139.452 11.5514C137.806 11.5356 136.13 11.5376 134.512 11.5396C133.925 11.5396 133.341 11.5396 132.754 11.5396H132.691V7.87336H132.837C133.433 7.87336 134.028 7.87732 134.624 7.88127C136.057 7.89117 137.537 7.90107 138.996 7.85356C139.935 7.82387 140.656 8.04756 141.33 8.58007C141.905 9.03538 142.524 9.43922 143.12 9.83118C143.382 10.0014 143.641 10.1736 143.9 10.3479L144.141 10.5122L144.635 10.0549L142.621 6.02837L142.297 6.17684C141.521 6.53119 140.709 6.52327 139.85 6.51535C139.715 6.51535 139.581 6.51337 139.447 6.51337H127.592L128.402 7.21415C128.525 7.32105 128.639 7.41607 128.747 7.50515C128.972 7.69321 129.167 7.85752 129.334 8.03172C129.424 8.12872 129.476 8.24948 129.476 8.28709C129.489 12.3274 129.489 16.5559 129.476 20.8516C129.476 20.8872 129.432 20.9961 129.353 21.0832C129.175 21.2772 128.978 21.4554 128.751 21.6612C128.652 21.7503 128.55 21.8434 128.446 21.9404L127.942 22.4095L127.346 21.9265C127.199 21.8077 127.06 21.6969 126.926 21.592C126.618 21.3465 126.351 21.1347 126.097 20.905C125.976 20.7962 125.879 20.6576 125.851 20.5527C124.11 14.0695 122.533 8.1505 121.03 2.45916C121.024 2.42155 121.051 2.28496 121.127 2.1543C121.227 1.97812 121.359 1.81183 121.511 1.61981C121.583 1.52875 121.657 1.43571 121.732 1.33475L122.213 0.693359H116.075L117.027 1.93259L112.017 8.14456L111.534 7.4814C110.183 5.62453 108.907 3.86863 107.616 2.07314C107.616 2.05334 107.622 2.02761 107.626 2.01969C107.701 1.87716 107.807 1.73859 107.93 1.57824C107.989 1.50103 108.05 1.42185 108.112 1.33673L108.574 0.701278H101.274L102.123 1.40799C102.19 1.46342 102.248 1.51489 102.301 1.5624C102.419 1.66732 102.53 1.7663 102.665 1.84548C102.773 1.90685 102.786 1.91477 102.727 2.14836C101.917 5.39886 101.109 8.65134 100.303 11.9038C99.5891 14.7821 98.8755 17.6625 98.1582 20.5408C98.1335 20.6378 98.0503 20.7684 97.9537 20.8556C97.6793 21.105 97.3878 21.3425 97.0793 21.592C96.9506 21.6969 96.82 21.8018 96.6856 21.9127L95.8301 22.6194H101.762L100.874 21.9087C100.738 21.7998 100.607 21.6929 100.482 21.592C100.197 21.3584 99.926 21.1386 99.644 20.9328C99.4963 20.8259 99.4831 20.808 99.5323 20.6121C100.683 16.0451 101.843 11.399 102.964 6.90533L103.92 3.07679L110.654 12.0087L117.644 3.36779L118.63 7.07954C119.847 11.6643 121.064 16.2471 122.287 20.8298C122.291 20.8457 122.294 20.8595 122.296 20.8694C122.289 20.8773 122.277 20.8852 122.26 20.8971C121.963 21.1208 121.672 21.3544 121.363 21.6019C121.233 21.7068 121.098 21.8137 120.958 21.9265L120.063 22.6372H128.224L128.219 22.6332H143.586L145.25 18.9017L144.582 18.9769C144.332 19.0046 144.161 19.1016 144.014 19.2026V19.2065Z" fill="black"/>
<path d="M55.2453 17.32C55.2112 17.3912 55.179 17.4566 55.1507 17.5239C54.0794 20.0459 52.4024 21.394 50.0251 21.6474C47.6554 21.8988 45.6964 20.8991 44.6459 18.9037C43.5727 16.8647 43.3456 14.6238 43.9513 12.0523C44.3696 10.2786 45.2062 9.02943 46.5084 8.22769C48.8118 6.81228 52.1185 7.39032 53.8768 9.51641C54.174 9.87471 54.4333 10.2726 54.7077 10.6923C54.8383 10.8922 54.9708 11.0941 55.1109 11.298L55.3248 11.6088L57.6302 10.0054L57.2573 9.66488C57.015 9.44514 56.7822 9.21947 56.557 8.99973C56.0611 8.51869 55.5936 8.06536 55.056 7.6833C51.986 5.49981 46.4913 5.25236 42.967 8.65924C41.2541 10.3162 40.3683 12.2364 40.338 14.3625C40.2964 17.1715 41.4377 19.4777 43.7317 21.2198C45.3292 22.4333 47.2541 23.0489 49.4554 23.0489C51.3103 23.0489 52.8737 22.6708 54.2346 21.8909C55.5633 21.1307 56.6478 20.032 57.5469 18.5355L57.7589 18.1811L55.4686 16.8528L55.2472 17.322L55.2453 17.32Z" fill="black"/>
<path d="M37.802 21.6473C37.5559 21.4454 37.342 21.2712 37.149 21.0772C37.0676 20.996 37.0165 20.8713 37.0165 20.8317C37.0032 16.5835 37.0032 12.3749 37.0165 8.31869C37.0165 8.26524 37.0751 8.12667 37.1717 8.02175C37.3344 7.84754 37.5256 7.6872 37.7471 7.50507C37.8493 7.41995 37.9572 7.33087 38.0669 7.23387L38.877 6.53309H31.8133L32.6878 7.24179C32.8108 7.34077 32.9262 7.43381 33.0379 7.52091C33.2859 7.71689 33.4997 7.88516 33.6928 8.06926C33.7609 8.13261 33.812 8.23159 33.8158 8.26524C33.8291 12.4125 33.8291 16.6508 33.8158 20.8634C33.812 20.901 33.7628 21.002 33.6947 21.0693C33.4941 21.2672 33.2669 21.4553 33.0266 21.6533C32.9206 21.7404 32.8127 21.8314 32.6991 21.9264L32.1161 22.4213L31.4896 21.9146C31.3515 21.8037 31.219 21.6968 31.0903 21.5958C30.7969 21.3623 30.5206 21.1425 30.265 20.9129C30.142 20.802 30.0455 20.6654 30.019 20.5605C28.2852 14.107 26.7086 8.18605 25.1981 2.467C25.1925 2.42741 25.2171 2.29279 25.2928 2.16214C25.3931 1.98596 25.5256 1.81967 25.6789 1.62567C25.7508 1.53461 25.8246 1.43959 25.9004 1.34061L26.383 0.699219H20.2638L21.1893 1.94439L16.1811 8.15042L15.7041 7.4932C14.3527 5.63435 13.0751 3.87647 11.7824 2.079C11.7824 2.0592 11.7861 2.03545 11.7899 2.02555C11.8656 1.88302 11.9716 1.74445 12.0947 1.5841C12.1533 1.50689 12.2158 1.42573 12.2783 1.34061L12.7401 0.705158H5.43976L6.2896 1.41187C6.35585 1.4673 6.41452 1.51877 6.46752 1.56628C6.58487 1.6712 6.69654 1.77018 6.83093 1.84738C6.94071 1.91073 6.95396 1.91865 6.89717 2.15026C6.07761 5.43639 5.26184 8.7245 4.44606 12.0126C3.74007 14.8553 3.03597 17.7 2.32808 20.5427C2.30347 20.6417 2.22019 20.7704 2.12366 20.8575C1.84921 21.1069 1.55773 21.3444 1.24921 21.5958C1.12051 21.7008 0.989907 21.8077 0.855522 21.9185L0 22.6252H5.92241L5.04228 21.9165C4.90032 21.8017 4.76405 21.6909 4.63155 21.582C4.31925 21.3266 4.02587 21.0851 3.71925 20.8594C3.68707 20.8357 3.67193 20.8198 3.66814 20.8198C3.66814 20.806 3.67004 20.7743 3.68707 20.707C4.6713 16.7874 5.66499 12.7985 6.62462 8.94226L7.48392 5.4938C7.65806 4.79896 7.83219 4.10413 8.01579 3.37959L8.0896 3.08661L14.8202 12.0146L21.812 3.36969L22.8152 7.14875C24.0265 11.7097 25.236 16.2707 26.453 20.8278C26.4587 20.8456 26.4606 20.8594 26.4625 20.8693C26.4549 20.8753 26.4436 20.8852 26.4303 20.8951C26.1332 21.1188 25.8436 21.3504 25.5388 21.5958C25.412 21.6968 25.2833 21.8017 25.147 21.9086L24.2518 22.6193H31.8833L31.8758 22.6252H38.9679L38.1351 21.9205C38.0196 21.8235 37.908 21.7305 37.8001 21.6434L37.802 21.6473Z" fill="black"/>
<path d="M136.035 5.70567C136.118 5.6839 136.215 5.66806 136.319 5.65222C136.591 5.61065 136.898 5.56314 137.137 5.3533C138.429 4.21702 139.688 3.07281 141.019 1.85932C141.437 1.47725 141.861 1.09321 142.289 0.703232L143.053 0.00839341H142.041C141.768 0.00839341 141.505 0.00839341 141.25 0.00839341C140.61 0.00839341 140.008 0.0123526 139.41 0.000475021C139.029 -0.00942296 138.766 0.135088 138.55 0.459741C137.901 1.44162 137.233 2.43538 136.586 3.39548C136.308 3.80922 136.029 4.22295 135.751 4.63669C135.696 4.71785 135.647 4.80298 135.6 4.89008L135.418 5.20286L135.77 5.77496L136.033 5.70567H136.035Z" fill="black"/>
<path d="M76.7967 21.5841C76.4314 21.3802 76.0869 21.1862 75.7651 20.9764C75.4547 20.7745 75.2087 20.5646 75.0345 20.3508C74.2017 19.3393 73.367 18.298 72.5607 17.2904L71.8566 16.4114C71.4213 15.869 70.9859 15.3227 70.5298 14.7506L70.3954 14.5823C71.4175 14.517 72.5891 14.4041 73.7115 13.9627C74.5519 13.6321 75.7216 13.0283 76.1588 11.6109C76.6945 9.8748 75.909 8.15651 74.2055 7.33696C73.0831 6.79653 71.8263 6.54116 70.2497 6.53126C67.6566 6.51543 65.0219 6.51741 62.4724 6.51939C61.5714 6.51939 60.6705 6.51939 59.7714 6.51939C59.6806 6.51939 59.5954 6.5273 59.497 6.5372C59.4496 6.54116 59.3966 6.5471 59.3361 6.55106L58.3916 6.62826L59.126 7.25382C59.2358 7.34686 59.3418 7.43396 59.444 7.51908C59.6768 7.7111 59.8774 7.87541 60.0591 8.05753C60.1291 8.12682 60.1802 8.23174 60.184 8.26539C60.1973 12.2879 60.1973 16.5282 60.184 20.8715C60.184 20.9071 60.1405 21.0041 60.0818 21.0674C59.8944 21.2694 59.6825 21.4614 59.4591 21.6653C59.3607 21.7544 59.2604 21.8474 59.1563 21.9444L58.4181 22.6353H65.3853L64.5317 21.9286C64.4143 21.8316 64.3045 21.7385 64.1986 21.6475C63.9563 21.4416 63.7273 21.2476 63.4831 21.0714C63.396 21.0081 63.3657 20.9704 63.3657 20.7883C63.3733 19.2244 63.3733 17.6348 63.3714 16.0967V14.5922H63.8333C64.7588 14.5902 65.6351 14.5882 66.5191 14.6041C66.5456 14.6159 66.6023 14.6575 66.6459 14.711C67.5639 15.8512 68.4875 17.0192 69.3809 18.1475L69.5607 18.3752C70.1645 19.1373 70.7664 19.9015 71.3721 20.6695L72.0137 21.4832L71.2169 22.6194H78.6099L77.3172 21.8771C77.1374 21.7742 76.9632 21.6772 76.7967 21.5841ZM72.996 10.534C73.0036 11.215 72.8181 12.1256 71.8888 12.5849C71.1411 12.9551 70.5203 13.1451 69.9922 13.1649C68.3437 13.2263 66.6629 13.2243 65.037 13.2223C64.7096 13.2223 64.384 13.2223 64.0566 13.2223C63.8351 13.2223 63.6156 13.2223 63.3941 13.2223V7.88135C63.926 7.88333 64.4579 7.88531 64.9878 7.88729C66.6042 7.89323 68.2736 7.89719 69.9165 7.92292C70.5904 7.93282 71.2377 8.11494 71.8415 8.46335C72.608 8.9048 72.9866 9.58182 72.996 10.534Z" fill="black"/>
<path d="M81.0133 8.26733C77.7351 11.1358 77.1237 15.6314 79.5275 19.1987C81.142 21.596 83.5913 22.9599 86.4342 23.0371C88.802 23.0351 90.6077 22.4848 92.2903 21.2535C94.2077 19.8499 95.4266 17.6843 95.631 15.3147C95.8355 12.953 95.014 10.6072 93.3787 8.87705C90.1723 5.48798 84.5111 5.20687 81.0133 8.26733ZM81.4581 13.4974C81.5755 12.0266 81.9313 10.8329 82.5484 9.84309C83.5345 8.26139 84.9219 7.48341 86.773 7.48341C87.0285 7.48341 87.2935 7.49925 87.5679 7.52894C89.9679 7.78827 91.5919 9.50458 92.1427 12.3572C92.2468 12.8917 92.2941 13.4519 92.3301 13.8597C92.3433 14.0042 92.3547 14.1329 92.366 14.2358C92.3301 16.5579 91.9459 18.1119 91.0884 19.4243C90.1042 20.9308 88.4424 21.782 86.6443 21.693C84.8462 21.6078 83.2657 20.6042 82.4159 19.0106C81.5887 17.4566 81.284 15.7067 81.46 13.4974H81.4581Z" fill="black"/>
<path d="M183.56 21.7956C183.471 21.7165 183.395 21.6472 183.306 21.5838C182.644 21.1008 182.106 20.4277 181.616 19.4657C180.424 17.1238 179.184 14.7602 177.986 12.4737C177.552 11.6482 177.121 10.8227 176.689 9.99527C176.231 9.12029 175.773 8.24332 175.306 7.35448L174.35 5.5293L173.905 6.27758C173.839 6.38844 173.78 6.48544 173.723 6.5864L172.2 9.26678C170.057 13.0359 167.841 16.9338 165.653 20.7623C165.573 20.9009 165.424 21.0474 165.221 21.1859C164.986 21.3463 164.737 21.4868 164.447 21.6492C164.315 21.7224 164.178 21.7996 164.034 21.8847L162.757 22.6271H168.428L166.921 21.3443L167.135 20.9662C167.593 20.1526 168.026 19.3845 168.477 18.6085C168.49 18.6026 168.505 18.5966 168.511 18.5966C171.532 18.5887 174.596 18.5887 177.611 18.5966C177.621 18.5966 177.636 18.6026 177.647 18.6085C178.081 19.3825 178.512 20.1803 178.928 20.9504L179.139 21.3364L177.819 22.6251H184.518L183.708 21.9243C183.653 21.8768 183.607 21.8352 183.564 21.7976L183.56 21.7956ZM173.209 10.3001L176.926 17.2188H169.272L173.209 10.3001Z" fill="black"/>
</svg>
