<svg width="500" height="58" viewBox="0 0 500 58" fill="none" xmlns="http://www.w3.org/2000/svg">
<path d="M499.913 39.8803C499.548 35.8073 497.816 32.7983 494.764 30.9226C492.233 29.3686 489.233 28.5223 485.324 28.2502C483.498 28.1264 481.643 28.067 479.849 28.0077C477.966 27.9483 476.021 27.8839 474.119 27.7454C472.392 27.6167 470.655 27.2653 469.099 26.716C467.755 26.2458 467.182 24.9789 467.57 23.321C467.968 21.6136 469.075 20.5792 471.389 19.7478C473.632 18.9411 476.121 18.6194 479.457 18.7134C484.525 18.852 488.514 20.7673 491.646 24.5582C491.816 24.7611 491.991 24.9591 492.185 25.1719L493.174 26.2706L497.499 21.084L496.368 20.3417C496.226 20.2476 496.099 20.1586 495.966 20.0843C488.977 15.9618 481.193 14.4969 472.827 15.7243C468.715 16.328 465.668 17.6098 463.236 19.7577C461.054 21.6828 459.971 24.8749 460.472 27.8889C460.946 30.7148 462.763 32.9369 465.46 33.986C467.201 34.664 468.616 35.0303 469.917 35.1391C471.687 35.2876 473.48 35.3569 475.212 35.4262C476.812 35.4856 478.468 35.5499 480.081 35.6786L480.597 35.7182C483.181 35.9211 485.854 36.1289 488.357 36.7327C491.954 37.6037 493.477 39.9941 493.141 44.2651C492.857 47.9273 490.898 50.5652 487.165 52.327C483.077 54.2571 478.562 54.7669 473.372 53.881C469.241 53.1782 465.928 51.1887 463.525 47.9719C463.066 47.3582 462.644 46.6851 462.195 45.9725C461.968 45.6162 461.736 45.245 461.485 44.859L460.042 42.6468L459.763 45.3093C459.696 45.9428 459.64 46.5664 459.578 47.1751C459.441 48.6103 459.313 49.9663 459.105 51.3026C458.849 52.8961 459.673 53.5346 460.515 53.9552C465.578 56.4693 471.133 57.6917 477.484 57.6917C477.602 57.6917 477.725 57.6917 477.848 57.6917C484.013 57.6472 488.736 56.3456 492.711 53.5989C498.067 49.897 500.428 45.4083 499.936 39.8753L499.913 39.8803Z" fill="#FFFBDF"/>
<path d="M408.823 48.1649C408.809 46.2644 408.809 44.364 408.809 42.4636C408.809 40.4989 408.809 38.5341 408.79 36.5694C408.786 35.9953 408.894 35.8122 409.155 35.6043C409.666 35.1935 410.129 34.7481 410.622 34.2681C410.839 34.0553 411.066 33.8375 411.308 33.6099L413.148 31.8827H396.062L398.153 33.6445C398.451 33.8969 398.74 34.1295 399.01 34.3572C399.634 34.8719 400.174 35.3173 400.666 35.7973C400.784 35.9112 400.888 36.1586 400.888 36.2477C400.931 40.39 400.916 44.4234 400.898 47.8234C400.898 48.0312 400.836 48.2737 400.746 48.4272C399.596 50.4265 397.992 51.9013 395.976 52.807C393.407 53.9651 390.558 54.4055 387.27 54.163C381.62 53.7473 377.636 50.8076 375.431 45.4281C373.841 41.553 373.439 37.3266 374.196 32.5013C374.792 28.6955 376.216 25.6519 378.544 23.1922C380.991 20.6138 384.085 19.139 387.743 18.8124C393.147 18.3224 397.183 19.4805 400.448 22.4499C401.129 23.0685 401.73 23.8109 402.369 24.5978C402.677 24.9788 402.989 25.3649 403.316 25.741L404.011 26.5427L408.89 21.0295L407.872 20.406C407.622 20.2525 407.38 20.0991 407.144 19.9507C406.633 19.629 406.15 19.3271 405.639 19.045C401.437 16.719 396.629 15.5015 390.946 15.3283C384.095 15.1204 378.421 16.7882 373.609 20.4357C367.126 25.35 364.486 32.2341 365.962 40.3454C367.207 47.1652 371.328 52.2527 378.213 55.4547C381.322 56.8998 384.696 57.5976 388.689 57.5976C389.48 57.5976 390.298 57.5679 391.145 57.5135C397.86 57.0829 403.32 54.7817 407.839 50.476C408.53 49.8228 408.833 49.1052 408.823 48.155V48.1649Z" fill="#FFFBDF"/>
<path d="M360.033 48.0164C359.376 48.4667 358.723 48.922 358.065 49.3724C356.447 50.4958 354.772 51.6539 353.106 52.7526C352.718 53.005 352.207 53.1732 351.795 53.1732C346.604 53.2029 341.324 53.2029 336.218 53.198H331.727V32.2687H332.877C338.503 32.2637 344.319 32.2538 350.04 32.2786C350.115 32.2786 350.333 32.3528 350.603 32.5557C351.966 33.5752 353.338 34.6343 354.663 35.6538L356.679 37.2028L357.928 35.921L352.959 26.1814L352.065 26.9782C351.932 27.097 351.8 27.2059 351.677 27.3048C351.384 27.5473 351.104 27.7799 350.854 28.0868C350.361 28.6807 349.784 28.8885 348.63 28.8786C344.513 28.839 340.325 28.844 336.279 28.8489C334.813 28.8489 333.35 28.8489 331.884 28.8489H331.727V19.6834H332.092C333.582 19.6834 335.068 19.6933 336.559 19.7032C340.141 19.7279 343.841 19.7527 347.489 19.6339C349.836 19.5597 351.639 20.1189 353.324 21.4502C354.762 22.5885 356.309 23.598 357.8 24.5779C358.453 25.0036 359.101 25.4341 359.75 25.8696L360.35 26.2804L361.585 25.1372L356.551 15.0709L355.742 15.4421C353.802 16.328 351.772 16.3082 349.623 16.2884C349.287 16.2884 348.951 16.2834 348.615 16.2834H318.98L321.005 18.0354C321.313 18.3026 321.596 18.5402 321.866 18.7629C322.429 19.233 322.917 19.6438 323.333 20.0793C323.56 20.3218 323.688 20.6237 323.688 20.7177C323.721 30.8186 323.721 41.3897 323.688 52.129C323.688 52.2181 323.579 52.4903 323.38 52.708C322.936 53.193 322.443 53.6384 321.876 54.1531C321.63 54.3758 321.374 54.6084 321.114 54.8509L319.855 56.0238L318.365 54.8163C317.995 54.5193 317.65 54.2422 317.314 53.9799C316.543 53.3662 315.876 52.8367 315.242 52.2626C314.939 51.9904 314.697 51.644 314.626 51.3817C310.273 35.1737 306.331 20.3763 302.574 6.1479C302.56 6.05387 302.626 5.71239 302.816 5.38575C303.066 4.94529 303.398 4.52958 303.776 4.04953C303.956 3.82187 304.141 3.58927 304.33 3.33687L305.532 1.7334H290.186L292.566 4.83147L280.041 20.3614L278.835 18.7035C275.456 14.0613 272.267 9.67158 269.04 5.18285C269.04 5.13336 269.054 5.06902 269.063 5.04922C269.253 4.6929 269.517 4.34647 269.825 3.9456C269.972 3.75259 270.123 3.55463 270.279 3.34182L271.434 1.75319H253.183L255.308 3.51998C255.473 3.65856 255.62 3.78723 255.752 3.90601C256.046 4.1683 256.325 4.41575 256.661 4.61371C256.931 4.76713 256.964 4.78693 256.817 5.37091C254.792 13.4972 252.771 21.6283 250.756 29.7595C248.972 36.9554 247.188 44.1562 245.394 51.352C245.333 51.5945 245.125 51.9211 244.883 52.1389C244.197 52.7625 243.469 53.3563 242.697 53.9799C242.375 54.2422 242.049 54.5045 241.713 54.7816L239.574 56.5484H254.404L252.185 54.7718C251.844 54.4996 251.517 54.2323 251.205 53.9799C250.491 53.3959 249.814 52.8466 249.109 52.3319C248.74 52.0647 248.707 52.0201 248.83 51.5302C251.707 40.1128 254.607 28.4975 257.409 17.2633L259.798 7.69199L276.634 30.0218L294.109 8.41949L296.574 17.6988C299.617 29.1607 302.66 40.6176 305.716 52.0745C305.726 52.1141 305.735 52.1488 305.74 52.1735C305.721 52.1933 305.693 52.2131 305.65 52.2428C304.907 52.8021 304.178 53.386 303.407 54.0047C303.081 54.267 302.745 54.5342 302.395 54.8163L300.156 56.593H320.56L320.546 56.5831H358.964L363.123 47.2542L361.453 47.4423C360.828 47.5116 360.402 47.7541 360.033 48.0065V48.0164Z" fill="#FFFBDF"/>
<path d="M138.114 43.3002C138.029 43.4784 137.948 43.6417 137.877 43.8099C135.199 50.115 131.006 53.4852 125.063 54.1187C119.139 54.7472 114.241 52.248 111.615 47.2594C108.932 42.1619 108.364 36.5597 109.879 30.1309C110.924 25.6966 113.016 22.5738 116.271 20.5695C122.03 17.0309 130.297 18.476 134.693 23.7913C135.435 24.687 136.084 25.6818 136.77 26.731C137.096 27.2308 137.428 27.7356 137.778 28.2454L138.312 29.0223L144.076 25.0137L143.144 24.1624C142.538 23.6131 141.956 23.0489 141.393 22.4996C140.153 21.297 138.984 20.1637 137.641 19.2085C129.965 13.7498 116.229 13.1311 107.418 21.6483C103.136 25.7907 100.921 30.5912 100.846 35.9064C100.741 42.929 103.595 48.6946 109.33 53.0497C113.323 56.0834 118.136 57.6226 123.639 57.6226C128.276 57.6226 132.185 56.6773 135.587 54.7274C138.909 52.827 141.62 50.0803 143.868 46.3389L144.398 45.453L138.672 42.1322L138.118 43.3051L138.114 43.3002Z" fill="#FFFBDF"/>
<path d="M94.5049 54.1183C93.8897 53.6135 93.355 53.178 92.8724 52.693C92.6689 52.4901 92.5412 52.1783 92.5412 52.0793C92.508 41.4588 92.508 30.9372 92.5412 20.7967C92.5412 20.6631 92.6879 20.3167 92.9292 20.0544C93.3361 19.6189 93.814 19.218 94.3677 18.7627C94.6232 18.5499 94.8929 18.3272 95.1674 18.0847L97.1926 16.3327H79.5333L81.7194 18.1045C82.027 18.3519 82.3156 18.5845 82.5948 18.8023C83.2147 19.2922 83.7494 19.7129 84.232 20.1731C84.4024 20.3315 84.5301 20.579 84.5396 20.6631C84.5727 31.0312 84.5727 41.627 84.5396 52.1585C84.5301 52.2525 84.4071 52.5049 84.2367 52.6732C83.7352 53.1681 83.1673 53.6382 82.5664 54.1331C82.3014 54.3509 82.0317 54.5785 81.7478 54.8161L80.2904 56.0533L78.7241 54.7864C78.3787 54.5093 78.0475 54.242 77.7257 53.9896C76.9922 53.4056 76.3014 52.8563 75.6626 52.2822C75.355 52.0051 75.1137 51.6636 75.0474 51.4013C70.7131 35.2676 66.7714 20.4651 62.9954 6.1675C62.9812 6.06852 63.0427 5.73199 63.232 5.40535C63.4828 4.96489 63.814 4.54918 64.1973 4.06418C64.3771 3.83652 64.5616 3.59897 64.7509 3.35152L65.9575 1.74805H50.6594L52.9733 4.86096L40.4527 20.3761L39.2603 18.733C35.8818 14.0859 32.6878 9.69118 29.4559 5.19749C29.4559 5.148 29.4653 5.08862 29.4748 5.06387C29.6641 4.70754 29.9291 4.36111 30.2366 3.96025C30.3833 3.76724 30.5395 3.56433 30.6956 3.35152L31.8502 1.76289H13.5994L15.724 3.52968C15.8896 3.66826 16.0363 3.79693 16.1688 3.91571C16.4622 4.178 16.7414 4.42545 17.0773 4.61846C17.3518 4.77683 17.3849 4.79663 17.2429 5.37566C15.194 13.591 13.1546 21.8113 11.1152 30.0315C9.35017 37.1383 7.58992 44.25 5.8202 51.3568C5.75868 51.6042 5.55048 51.9259 5.30916 52.1436C4.62304 52.7672 3.89433 53.3611 3.12303 53.9896C2.80127 54.2519 2.47477 54.5192 2.1388 54.7963L0 56.5631H14.806L12.6057 54.7913C12.2508 54.5043 11.9101 54.2272 11.5789 53.955C10.7981 53.3166 10.0647 52.7128 9.29812 52.1486C9.21768 52.0892 9.17983 52.0496 9.17036 52.0496C9.17036 52.015 9.17509 51.9358 9.21768 51.7675C11.6783 41.9685 14.1625 31.9963 16.5615 22.3557L18.7098 13.7345C19.1451 11.9974 19.5805 10.2603 20.0395 8.44898L20.224 7.71653L37.0505 30.0365L54.5301 8.42424L57.038 17.8719C60.0663 29.2743 63.09 40.6768 66.1326 52.0694C66.1468 52.1139 66.1515 52.1486 66.1563 52.1733C66.1373 52.1882 66.1089 52.2129 66.0758 52.2377C65.3329 52.7969 64.6089 53.3759 63.8471 53.9896C63.5301 54.242 63.2083 54.5043 62.8676 54.7716L60.6294 56.5482H79.7083L79.6894 56.5631H97.4197L95.3377 54.8012C95.0491 54.5587 94.7699 54.3261 94.5002 54.1084L94.5049 54.1183Z" fill="#FFFBDF"/>
<path d="M340.088 14.2642C340.297 14.2097 340.538 14.1702 340.798 14.1306C341.48 14.0266 342.246 13.9079 342.842 13.3833C346.074 10.5425 349.221 7.68202 352.548 4.64829C353.593 3.69314 354.653 2.73303 355.723 1.75808L357.634 0.0209835H355.103C354.421 0.0209835 353.764 0.0209835 353.125 0.0209835C351.525 0.0209835 350.021 0.0308815 348.525 0.00118755C347.574 -0.0235574 346.917 0.337719 346.377 1.14935C344.754 3.60405 343.084 6.08845 341.465 8.48871C340.77 9.52305 340.074 10.5574 339.379 11.5917C339.241 11.7946 339.118 12.0074 339 12.2252L338.546 13.0071L339.426 14.4374L340.084 14.2642H340.088Z" fill="#FFFBDF"/>
<path d="M191.991 53.96C191.078 53.4503 190.217 52.9653 189.412 52.4407C188.636 51.9359 188.021 51.4113 187.586 50.8768C185.504 48.3479 183.417 45.7447 181.401 43.2257L179.641 41.0283C178.553 39.6723 177.464 38.3064 176.324 36.8761L175.988 36.4555C178.543 36.2922 181.472 36.0101 184.278 34.9064C186.379 34.0799 189.304 32.5705 190.397 29.027C191.736 24.6868 189.772 20.391 185.513 18.3422C182.707 16.9911 179.565 16.3527 175.624 16.3279C169.141 16.2883 162.554 16.2933 156.18 16.2982C153.928 16.2982 151.676 16.2982 149.428 16.2982C149.201 16.2982 148.988 16.318 148.742 16.3428C148.624 16.3527 148.491 16.3675 148.34 16.3774L145.979 16.5704L147.814 18.1343C148.089 18.3669 148.354 18.5847 148.609 18.7975C149.191 19.2775 149.693 19.6883 150.147 20.1436C150.322 20.3168 150.45 20.5791 150.46 20.6632C150.493 30.7196 150.493 41.3203 150.46 52.1784C150.46 52.2675 150.351 52.51 150.204 52.6684C149.736 53.1732 149.206 53.6532 148.647 54.163C148.401 54.3857 148.15 54.6183 147.89 54.8608L146.045 56.588H163.463L161.329 54.8212C161.035 54.5787 160.761 54.3461 160.496 54.1184C159.89 53.6037 159.318 53.1187 158.707 52.6783C158.49 52.5199 158.414 52.4259 158.414 51.9706C158.433 48.0609 158.433 44.0868 158.428 40.2414V36.4802H159.583C161.897 36.4753 164.087 36.4703 166.297 36.5099C166.363 36.5396 166.505 36.6435 166.614 36.7772C168.909 39.6278 171.218 42.5477 173.452 45.3686L173.901 45.9377C175.411 47.8431 176.915 49.7534 178.43 51.6736L180.034 53.7077L178.042 56.5484H196.524L193.292 54.6925C192.843 54.4352 192.408 54.1926 191.991 53.96ZM182.49 26.3348C182.509 28.0372 182.045 30.3138 179.721 31.4619C177.852 32.3874 176.3 32.8625 174.98 32.912C170.859 33.0654 166.657 33.0605 162.592 33.0555C161.773 33.0555 160.96 33.0555 160.141 33.0555C159.587 33.0555 159.038 33.0555 158.485 33.0555V19.7031C159.814 19.7081 161.144 19.713 162.469 19.718C166.51 19.7328 170.684 19.7427 174.791 19.8071C176.475 19.8318 178.094 20.2871 179.603 21.1581C181.52 22.2618 182.466 23.9543 182.49 26.3348Z" fill="#FFFBDF"/>
<path d="M202.534 20.6681C194.338 27.8392 192.81 39.0783 198.819 47.9964C202.856 53.9896 208.979 57.3995 216.086 57.5925C222.005 57.5876 226.52 56.2117 230.726 53.1335C235.52 49.6246 238.567 44.2104 239.078 38.2865C239.589 32.3823 237.535 26.5178 233.447 22.1924C225.431 13.7197 211.278 13.0169 202.534 20.6681ZM203.646 33.7433C203.939 30.0662 204.829 27.082 206.371 24.6075C208.837 20.6532 212.305 18.7083 216.933 18.7083C217.572 18.7083 218.234 18.7479 218.92 18.8221C224.92 19.4704 228.98 23.7612 230.357 30.8927C230.617 32.2289 230.736 33.6295 230.826 34.649C230.859 35.0103 230.887 35.3319 230.916 35.5893C230.826 41.3945 229.865 45.2794 227.722 48.5606C225.261 52.3268 221.106 54.4548 216.611 54.2321C212.116 54.0193 208.165 51.5102 206.04 47.5263C203.972 43.6413 203.211 39.2664 203.651 33.7433H203.646Z" fill="#FFFBDF"/>
<path d="M458.902 54.4896C458.679 54.2916 458.49 54.1184 458.267 53.9601C456.611 52.7525 455.267 51.0698 454.042 48.6646C451.061 42.81 447.961 36.9009 444.966 31.1848C443.883 29.1211 442.804 27.0573 441.725 24.9887C440.58 22.8012 439.435 20.6088 438.266 18.3867L435.876 13.8237L434.764 15.6944C434.599 15.9716 434.452 16.2141 434.31 16.4665L430.501 23.1674C425.144 32.5903 419.603 42.3349 414.133 51.9062C413.935 52.2527 413.561 52.6189 413.054 52.9653C412.468 53.3662 411.843 53.7176 411.119 54.1234C410.788 54.3065 410.447 54.4995 410.088 54.7123L406.894 56.5682H421.07L417.304 53.3612L417.838 52.416C418.983 50.3819 420.067 48.4617 421.193 46.5217C421.226 46.5069 421.264 46.492 421.278 46.492C428.831 46.4722 436.491 46.4722 444.029 46.492C444.053 46.492 444.091 46.5069 444.119 46.5217C445.203 48.4568 446.282 50.4512 447.323 52.3764L447.848 53.3414L444.55 56.5632H461.296L459.271 54.8113C459.133 54.6925 459.02 54.5886 458.911 54.4945L458.902 54.4896ZM433.023 25.7508L442.316 43.0475H423.181L433.023 25.7508Z" fill="#FFFBDF"/>
</svg>
