<svg width="500" height="58" viewBox="0 0 500 58" fill="none" xmlns="http://www.w3.org/2000/svg">
<path d="M499.913 39.8802C499.548 35.8072 497.816 32.7982 494.764 30.9225C492.233 29.3686 489.233 28.5223 485.324 28.2501C483.498 28.1264 481.643 28.067 479.849 28.0076C477.966 27.9482 476.021 27.8839 474.119 27.7453C472.392 27.6166 470.655 27.2652 469.099 26.7159C467.755 26.2458 467.182 24.9788 467.57 23.3209C467.968 21.6135 469.075 20.5792 471.389 19.7477C473.632 18.941 476.121 18.6194 479.457 18.7134C484.525 18.852 488.514 20.7672 491.646 24.5581C491.816 24.7611 491.991 24.959 492.185 25.1718L493.174 26.2705L497.499 21.084L496.368 20.3416C496.226 20.2476 496.099 20.1585 495.966 20.0843C488.977 15.9617 481.193 14.4968 472.827 15.7242C468.715 16.328 465.668 17.6098 463.236 19.7576C461.054 21.6828 459.971 24.8749 460.472 27.8888C460.946 30.7147 462.763 32.9368 465.46 33.986C467.201 34.664 468.616 35.0302 469.917 35.1391C471.687 35.2876 473.48 35.3568 475.212 35.4261C476.812 35.4855 478.468 35.5499 480.081 35.6785L480.597 35.7181C483.181 35.921 485.854 36.1289 488.357 36.7327C491.954 37.6037 493.477 39.9941 493.141 44.265C492.857 47.9273 490.898 50.5651 487.165 52.3269C483.077 54.257 478.562 54.7668 473.372 53.8809C469.241 53.1782 465.928 51.1887 463.525 47.9718C463.066 47.3582 462.644 46.6851 462.195 45.9724C461.968 45.6161 461.736 45.2449 461.485 44.8589L460.042 42.6467L459.763 45.3093C459.696 45.9427 459.64 46.5663 459.578 47.175C459.441 48.6102 459.313 49.9663 459.105 51.3025C458.849 52.8961 459.673 53.5345 460.515 53.9552C465.578 56.4692 471.133 57.6916 477.484 57.6916C477.602 57.6916 477.725 57.6916 477.848 57.6916C484.013 57.6471 488.736 56.3455 492.711 53.5988C498.067 49.897 500.428 45.4082 499.936 39.8753L499.913 39.8802Z" fill="#FFFBDF"/>
<path d="M408.824 48.1648C408.809 46.2644 408.809 44.364 408.809 42.4636C408.809 40.4988 408.809 38.5341 408.791 36.5693C408.786 35.9952 408.895 35.8121 409.155 35.6043C409.666 35.1935 410.13 34.7481 410.622 34.268C410.839 34.0552 411.067 33.8375 411.308 33.6098L413.149 31.8826H396.062L398.153 33.6445C398.451 33.8969 398.74 34.1295 399.01 34.3571C399.634 34.8718 400.174 35.3172 400.666 35.7973C400.784 35.9111 400.888 36.1585 400.888 36.2476C400.931 40.3899 400.917 44.4234 400.898 47.8233C400.898 48.0312 400.836 48.2737 400.746 48.4271C399.597 50.4265 397.992 51.9013 395.977 52.807C393.407 53.965 390.559 54.4055 387.27 54.163C381.62 53.7473 377.636 50.8076 375.431 45.428C373.841 41.5529 373.439 37.3265 374.196 32.5012C374.792 28.6955 376.216 25.6518 378.544 23.1922C380.991 20.6138 384.085 19.139 387.743 18.8123C393.147 18.3224 397.183 19.4804 400.448 22.4498C401.13 23.0685 401.731 23.8108 402.369 24.5977C402.677 24.9788 402.989 25.3648 403.316 25.7409L404.011 26.5426L408.89 21.0295L407.873 20.4059C407.622 20.2525 407.38 20.0991 407.144 19.9506C406.633 19.6289 406.15 19.327 405.639 19.0449C401.437 16.7189 396.63 15.5014 390.947 15.3282C384.095 15.1204 378.421 16.7882 373.609 20.4356C367.126 25.3499 364.486 32.234 365.962 40.3454C367.207 47.1651 371.328 52.2527 378.213 55.4547C381.322 56.8998 384.696 57.5976 388.69 57.5976C389.48 57.5976 390.298 57.5679 391.145 57.5134C397.86 57.0829 403.321 54.7816 407.839 50.476C408.53 49.8227 408.833 49.1051 408.824 48.1549V48.1648Z" fill="#FFFBDF"/>
<path d="M360.034 48.0163C359.376 48.4667 358.723 48.922 358.065 49.3724C356.447 50.4958 354.772 51.6539 353.106 52.7525C352.718 53.0049 352.207 53.1732 351.795 53.1732C346.605 53.2029 341.324 53.2029 336.218 53.1979H331.728V32.2687H332.877C338.504 32.2637 344.319 32.2538 350.04 32.2785C350.116 32.2785 350.333 32.3528 350.603 32.5557C351.966 33.5752 353.338 34.6343 354.663 35.6538L356.679 37.2028L357.928 35.921L352.96 26.1814L352.065 26.9782C351.933 27.097 351.8 27.2058 351.677 27.3048C351.384 27.5473 351.105 27.7799 350.854 28.0868C350.362 28.6806 349.784 28.8885 348.63 28.8786C344.513 28.839 340.325 28.8439 336.28 28.8489C334.813 28.8489 333.351 28.8489 331.884 28.8489H331.728V19.6834H332.092C333.583 19.6834 335.068 19.6933 336.559 19.7032C340.141 19.7279 343.841 19.7526 347.489 19.6339C349.836 19.5596 351.639 20.1189 353.324 21.4502C354.762 22.5884 356.31 23.598 357.8 24.5779C358.453 25.0035 359.101 25.4341 359.75 25.8696L360.351 26.2804L361.586 25.1371L356.551 15.0709L355.742 15.4421C353.802 16.3279 351.772 16.3082 349.624 16.2884C349.288 16.2884 348.952 16.2834 348.616 16.2834H318.98L321.005 18.0353C321.313 18.3026 321.597 18.5401 321.866 18.7628C322.429 19.233 322.917 19.6438 323.333 20.0793C323.56 20.3218 323.688 20.6237 323.688 20.7177C323.721 30.8186 323.721 41.3896 323.688 52.129C323.688 52.218 323.579 52.4902 323.381 52.708C322.936 53.193 322.444 53.6384 321.876 54.1531C321.63 54.3758 321.374 54.6084 321.114 54.8509L319.855 56.0238L318.365 54.8163C317.996 54.5193 317.65 54.2422 317.314 53.9799C316.543 53.3662 315.876 52.8367 315.242 52.2626C314.939 51.9904 314.698 51.644 314.627 51.3817C310.273 35.1737 306.332 20.3762 302.575 6.14787C302.56 6.05384 302.627 5.71236 302.816 5.38572C303.067 4.94526 303.398 4.52955 303.776 4.0495C303.956 3.82184 304.141 3.58924 304.33 3.33684L305.532 1.73337H290.187L292.567 4.83144L280.041 20.3614L278.835 18.7035C275.456 14.0613 272.267 9.67155 269.04 5.18282C269.04 5.13333 269.054 5.06899 269.063 5.04919C269.253 4.69287 269.518 4.34644 269.825 3.94557C269.972 3.75256 270.123 3.5546 270.28 3.34179L271.434 1.75316H253.183L255.308 3.51995C255.474 3.65853 255.62 3.7872 255.753 3.90598C256.046 4.16827 256.325 4.41572 256.661 4.61368C256.931 4.7671 256.964 4.7869 256.817 5.37088C254.792 13.4971 252.772 21.6283 250.756 29.7595C248.972 36.9553 247.188 44.1561 245.395 51.352C245.333 51.5945 245.125 51.9211 244.884 52.1389C244.198 52.7624 243.469 53.3563 242.697 53.9799C242.376 54.2422 242.049 54.5045 241.713 54.7816L239.574 56.5484H254.404L252.185 54.7717C251.844 54.4995 251.518 54.2323 251.205 53.9799C250.491 53.3959 249.814 52.8466 249.109 52.3319C248.74 52.0646 248.707 52.0201 248.83 51.5301C251.707 40.1128 254.608 28.4975 257.409 17.2633L259.798 7.69195L276.634 30.0218L294.109 8.41946L296.575 17.6988C299.617 29.1607 302.66 40.6176 305.717 52.0745C305.726 52.1141 305.735 52.1488 305.74 52.1735C305.721 52.1933 305.693 52.2131 305.65 52.2428C304.907 52.802 304.179 53.386 303.407 54.0046C303.081 54.2669 302.745 54.5342 302.395 54.8163L300.157 56.5929H320.56L320.546 56.583H358.964L363.124 47.2542L361.453 47.4423C360.829 47.5115 360.403 47.754 360.034 48.0064V48.0163Z" fill="#FFFBDF"/>
<path d="M138.114 43.3C138.029 43.4781 137.949 43.6415 137.878 43.8097C135.199 50.1147 131.007 53.485 125.064 54.1185C119.139 54.747 114.242 52.2478 111.616 47.2592C108.933 42.1617 108.365 36.5594 109.879 30.1307C110.925 25.6964 113.016 22.5736 116.272 20.5693C122.031 17.0307 130.297 18.4758 134.693 23.791C135.436 24.6868 136.084 25.6816 136.77 26.7308C137.097 27.2306 137.428 27.7354 137.778 28.2451L138.313 29.0221L144.076 25.0134L143.144 24.1622C142.539 23.6129 141.956 23.0487 141.393 22.4994C140.154 21.2968 138.985 20.1634 137.641 19.2083C129.966 13.7495 116.229 13.1309 107.419 21.6481C103.136 25.7904 100.922 30.591 100.846 35.9062C100.742 42.9288 103.595 48.6944 109.33 53.0495C113.324 56.0832 118.136 57.6224 123.639 57.6224C128.277 57.6224 132.185 56.6771 135.587 54.7272C138.909 52.8268 141.621 50.0801 143.868 46.3387L144.398 45.4528L138.673 42.132L138.119 43.3049L138.114 43.3Z" fill="#FFFBDF"/>
<path d="M94.5049 54.1184C93.8897 53.6136 93.355 53.1781 92.8724 52.6931C92.6689 52.4902 92.5412 52.1784 92.5412 52.0794C92.508 41.4589 92.508 30.9373 92.5412 20.7968C92.5412 20.6632 92.6879 20.3168 92.9292 20.0545C93.3361 19.619 93.814 19.2181 94.3677 18.7628C94.6232 18.55 94.8929 18.3273 95.1674 18.0848L97.1926 16.3329H79.5333L81.7194 18.1046C82.027 18.352 82.3156 18.5846 82.5948 18.8024C83.2147 19.2923 83.7494 19.713 84.232 20.1733C84.4024 20.3316 84.5301 20.5791 84.5396 20.6632C84.5727 31.0314 84.5727 41.6272 84.5396 52.1586C84.5301 52.2526 84.4071 52.505 84.2367 52.6733C83.7352 53.1682 83.1673 53.6384 82.5664 54.1333C82.3014 54.351 82.0317 54.5787 81.7478 54.8162L80.2904 56.0535L78.7241 54.7865C78.3787 54.5094 78.0475 54.2421 77.7257 53.9897C76.9922 53.4058 76.3014 52.8564 75.6626 52.2823C75.355 52.0052 75.1137 51.6637 75.0474 51.4014C70.7131 35.2677 66.7714 20.4653 62.9954 6.16762C62.9812 6.06864 63.0427 5.73211 63.232 5.40547C63.4828 4.96501 63.814 4.5493 64.1973 4.0643C64.3771 3.83664 64.5616 3.59909 64.7509 3.35164L65.9575 1.74817H50.6594L52.9733 4.86109L40.4527 20.3762L39.2603 18.7331C35.8818 14.086 32.6878 9.6913 29.4559 5.19762C29.4559 5.14813 29.4653 5.08874 29.4748 5.06399C29.6641 4.70767 29.9291 4.36124 30.2366 3.96037C30.3833 3.76736 30.5395 3.56445 30.6956 3.35164L31.8502 1.76302H13.5994L15.724 3.52981C15.8896 3.66838 16.0363 3.79705 16.1688 3.91583C16.4622 4.17812 16.7414 4.42557 17.0773 4.61858C17.3518 4.77695 17.3849 4.79675 17.2429 5.37578C15.194 13.5911 13.1546 21.8114 11.1152 30.0317C9.35017 37.1384 7.58992 44.2501 5.8202 51.3569C5.75868 51.6043 5.55048 51.926 5.30916 52.1438C4.62304 52.7673 3.89433 53.3612 3.12303 53.9897C2.80127 54.252 2.47477 54.5193 2.1388 54.7964L0 56.5632H14.806L12.6057 54.7915C12.2508 54.5044 11.9101 54.2273 11.5789 53.9551C10.7981 53.3167 10.0647 52.7129 9.29812 52.1487C9.21768 52.0893 9.17983 52.0497 9.17036 52.0497C9.17036 52.0151 9.17509 51.9359 9.21768 51.7676C11.6783 41.9686 14.1625 31.9964 16.5615 22.3558L18.7098 13.7346C19.1451 11.9975 19.5805 10.2604 20.0395 8.4491L20.224 7.71665L37.0505 30.0366L54.5301 8.42436L57.038 17.872C60.0663 29.2745 63.09 40.6769 66.1326 52.0695C66.1468 52.1141 66.1515 52.1487 66.1563 52.1735C66.1373 52.1883 66.1089 52.213 66.0758 52.2378C65.3329 52.797 64.6089 53.3761 63.8471 53.9897C63.5301 54.2421 63.2083 54.5044 62.8676 54.7717L60.6294 56.5484H79.7083L79.6894 56.5632H97.4197L95.3377 54.8014C95.0491 54.5589 94.7699 54.3263 94.5002 54.1085L94.5049 54.1184Z" fill="#FFFBDF"/>
<path d="M340.089 14.2642C340.297 14.2097 340.538 14.1702 340.799 14.1306C341.48 14.0266 342.246 13.9079 342.843 13.3833C346.075 10.5425 349.221 7.68202 352.548 4.64829C353.593 3.69314 354.653 2.73303 355.723 1.75808L357.635 0.0209835H355.103C354.422 0.0209835 353.764 0.0209835 353.125 0.0209835C351.526 0.0209835 350.021 0.0308815 348.526 0.00118755C347.575 -0.0235574 346.917 0.337719 346.377 1.14935C344.754 3.60405 343.084 6.08845 341.466 8.48871C340.77 9.52305 340.075 10.5574 339.379 11.5917C339.242 11.7946 339.119 12.0074 339 12.2252L338.546 13.0071L339.426 14.4374L340.084 14.2642H340.089Z" fill="#FFFBDF"/>
<path d="M191.991 53.9601C191.078 53.4504 190.217 52.9654 189.412 52.4408C188.636 51.936 188.021 51.4114 187.586 50.8769C185.504 48.348 183.417 45.7448 181.401 43.2257L179.641 41.0284C178.553 39.6724 177.464 38.3064 176.324 36.8762L175.988 36.4555C178.543 36.2922 181.472 36.0101 184.278 34.9065C186.379 34.08 189.303 32.5706 190.396 29.0271C191.736 24.6868 189.772 20.3911 185.513 18.3422C182.707 16.9911 179.565 16.3527 175.624 16.328C169.141 16.2884 162.554 16.2933 156.18 16.2983C153.928 16.2983 151.676 16.2983 149.428 16.2983C149.201 16.2983 148.988 16.3181 148.742 16.3428C148.624 16.3527 148.491 16.3676 148.34 16.3775L145.978 16.5705L147.814 18.1344C148.089 18.367 148.354 18.5847 148.609 18.7975C149.191 19.2776 149.693 19.6883 150.147 20.1436C150.322 20.3169 150.45 20.5792 150.459 20.6633C150.493 30.7196 150.493 41.3204 150.459 52.1785C150.459 52.2676 150.351 52.5101 150.204 52.6684C149.735 53.1732 149.206 53.6533 148.647 54.163C148.401 54.3857 148.15 54.6183 147.89 54.8608L146.045 56.588H163.463L161.329 54.8212C161.035 54.5787 160.761 54.3461 160.496 54.1185C159.89 53.6038 159.318 53.1188 158.707 52.6783C158.489 52.52 158.414 52.4259 158.414 51.9706C158.433 48.0609 158.433 44.0869 158.428 40.2415V36.4803H159.583C161.896 36.4753 164.087 36.4704 166.297 36.51C166.363 36.5397 166.505 36.6436 166.614 36.7772C168.909 39.6278 171.218 42.5477 173.452 45.3687L173.901 45.9378C175.411 47.8432 176.915 49.7535 178.43 51.6737L180.034 53.7077L178.042 56.5484H196.524L193.292 54.6926C192.843 54.4352 192.407 54.1927 191.991 53.9601ZM182.489 26.3348C182.508 28.0373 182.045 30.3138 179.721 31.462C177.852 32.3875 176.3 32.8626 174.98 32.912C170.859 33.0655 166.657 33.0605 162.592 33.0556C161.773 33.0556 160.959 33.0556 160.141 33.0556C159.587 33.0556 159.038 33.0556 158.485 33.0556V19.7032C159.814 19.7081 161.144 19.7131 162.469 19.718C166.51 19.7329 170.683 19.7428 174.791 19.8071C176.475 19.8319 178.094 20.2872 179.603 21.1582C181.519 22.2618 182.466 23.9544 182.489 26.3348Z" fill="#FFFBDF"/>
<path d="M202.534 20.6682C194.338 27.8393 192.81 39.0785 198.819 47.9965C202.855 53.9898 208.978 57.3996 216.086 57.5926C222.005 57.5877 226.519 56.2119 230.726 53.1336C235.519 49.6248 238.567 44.2106 239.078 38.2866C239.589 32.3825 237.535 26.5179 233.447 22.1925C225.431 13.7198 211.278 13.0171 202.534 20.6682ZM203.646 33.7434C203.939 30.0663 204.829 27.0821 206.371 24.6076C208.836 20.6534 212.305 18.7084 216.933 18.7084C217.571 18.7084 218.234 18.748 218.92 18.8222C224.92 19.4705 228.98 23.7613 230.357 30.8928C230.617 32.229 230.736 33.6296 230.825 34.6491C230.859 35.0104 230.887 35.3321 230.915 35.5894C230.825 41.3946 229.865 45.2795 227.721 48.5607C225.261 52.3269 221.106 54.455 216.611 54.2323C212.116 54.0195 208.165 51.5103 206.04 47.5264C203.972 43.6414 203.21 39.2665 203.65 33.7434H203.646Z" fill="#FFFBDF"/>
<path d="M458.901 54.4896C458.679 54.2916 458.49 54.1184 458.267 53.96C456.611 52.7525 455.267 51.0698 454.042 48.6646C451.061 42.8099 447.961 36.9008 444.966 31.1848C443.882 29.121 442.803 27.0573 441.725 24.9886C440.58 22.8012 439.434 20.6088 438.266 18.3867L435.876 13.8237L434.764 15.6944C434.598 15.9716 434.452 16.2141 434.31 16.4665L430.501 23.1674C425.144 32.5903 419.603 42.3348 414.133 51.9062C413.934 52.2526 413.561 52.6188 413.054 52.9653C412.467 53.3661 411.843 53.7175 411.119 54.1233C410.788 54.3064 410.447 54.4995 410.087 54.7123L406.893 56.5681H421.07L417.303 53.3612L417.838 52.4159C418.983 50.3819 420.067 48.4617 421.193 46.5217C421.226 46.5068 421.264 46.492 421.278 46.492C428.83 46.4722 436.491 46.4722 444.029 46.492C444.053 46.492 444.091 46.5068 444.119 46.5217C445.203 48.4567 446.281 50.4512 447.322 52.3763L447.848 53.3414L444.55 56.5632H461.296L459.27 54.8112C459.133 54.6925 459.02 54.5885 458.911 54.4945L458.901 54.4896ZM433.023 25.7508L442.316 43.0475H423.18L433.023 25.7508Z" fill="#FFFBDF"/>
</svg>
