<svg width="21" height="9" viewBox="0 0 21 9" fill="none" xmlns="http://www.w3.org/2000/svg">
<path fill-rule="evenodd" clip-rule="evenodd" d="M17.7545 1.3254C17.5748 1.11574 17.5991 0.800092 17.8088 0.620381C18.0184 0.44067 18.3341 0.46495 18.5138 0.674613L20.3981 2.87303C21.2006 3.80925 21.2006 5.19076 20.3981 6.12699L18.5138 8.3254C18.3341 8.53507 18.0184 8.55935 17.8088 8.37964C17.5991 8.19993 17.5748 7.88428 17.7545 7.67461L19.6389 5.4762C19.7624 5.33205 19.8543 5.17031 19.9144 5.00001H19.6342H0.634155H0.134155V4.00001H0.634155H19.6342H19.9144C19.8543 3.82971 19.7624 3.66797 19.6389 3.52382L17.7545 1.3254Z" fill="black"/>
</svg>
