<svg width="21" height="9" viewBox="0 0 21 9" fill="none" xmlns="http://www.w3.org/2000/svg">
<path fill-rule="evenodd" clip-rule="evenodd" d="M3.37963 7.6746C3.55934 7.88426 3.53506 8.19991 3.3254 8.37962C3.11573 8.55933 2.80008 8.53505 2.62037 8.32539L0.736014 6.12697C-0.0664641 5.19075 -0.0664638 3.80924 0.736015 2.87301L2.62037 0.674597C2.80008 0.464934 3.11573 0.440653 3.3254 0.620364C3.53506 0.800075 3.55934 1.11572 3.37963 1.32539L1.49527 3.5238C1.37172 3.66795 1.27987 3.82969 1.21972 3.99999L1.5 3.99999L20.5 3.99999L21 3.99999L21 4.99999L20.5 4.99999L1.5 4.99999L1.21972 4.99999C1.27987 5.17029 1.37172 5.33203 1.49527 5.47618L3.37963 7.6746Z" fill="black"/>
</svg>
